HIERARCHY
ROOT SpineBase
{
  OFFSET 0.000000 0.000000 0.000000
  CHANNELS 6 Xposition Yposition Zposition Zrotation Xrotation Yrotation
  JOINT SpineMid
  {
    OFFSET 0.000000 25.529505 0.000000
    CHANNELS 3 Zrotation Xrotation Yrotation
    JOINT SpineShoulder
    {
      OFFSET -0.284913 19.176614 -0.470829
      CHANNELS 3 Zrotation Xrotation Yrotation
      JOINT Neck
      {
        OFFSET -0.284136 6.255455 -0.388428
        CHANNELS 3 Zrotation Xrotation Yrotation
        JOINT Head
        {
          OFFSET 1.667121 9.954807 7.319378
          CHANNELS 3 Zrotation Xrotation Yrotation
          End Site
          {
            OFFSET 0 0 0
          }
        }
      }
      JOINT ShoulderLeft
      {
        OFFSET -2.488990 -3.702317 12.726569
        CHANNELS 3 Zrotation Xrotation Yrotation
        JOINT ElbowLeft
        {
          OFFSET 0.494109 -27.265548 2.221283
          CHANNELS 3 Zrotation Xrotation Yrotation
          JOINT WristLeft
          {
            OFFSET -4.129646 -18.842011 -9.358730
            CHANNELS 3 Zrotation Xrotation Yrotation
            JOINT HandLeft
            {
              OFFSET -0.345688 -3.394741 0.304496
              CHANNELS 3 Zrotation Xrotation Yrotation
              JOINT HandTipLeft
              {
                OFFSET 1.432314 -3.752764 0.008527
                CHANNELS 3 Zrotation Xrotation Yrotation
                End Site
                {
                  OFFSET 0 0 0
                }
              }
              JOINT ThumbLeft
              {
                OFFSET 2.412142 0.083346 -0.460230
                CHANNELS 3 Zrotation Xrotation Yrotation
                End Site
                {
                  OFFSET 0 0 0
                }
              }
            }
          }
        }
      }
      JOINT ShoulderRight
      {
        OFFSET 5.317489 5.639147 -4.639731
        CHANNELS 3 Zrotation Xrotation Yrotation
        JOINT ElbowRight
        {
          OFFSET -11.005252 -25.661530 -6.124104
          CHANNELS 3 Zrotation Xrotation Yrotation
          JOINT WristRight
          {
            OFFSET 6.985433 -19.207536 -8.522804
            CHANNELS 3 Zrotation Xrotation Yrotation
            JOINT HandRight
            {
              OFFSET 1.043256 -6.334430 3.747578
              CHANNELS 3 Zrotation Xrotation Yrotation
              JOINT HandTipRight
              {
                OFFSET 0.723321 -7.430042 -2.877027
                CHANNELS 3 Zrotation Xrotation Yrotation
                End Site
                {
                  OFFSET 0 0 0
                }
              }
              JOINT ThumbRight
              {
                OFFSET 6.136496 0.930937 -1.597169
                CHANNELS 3 Zrotation Xrotation Yrotation
                End Site
                {
                  OFFSET 0 0 0
                }
              }
            }
          }
        }
      }
    }
  }
  JOINT HipLeft
  {
    OFFSET -2.656625 0.690162 -2.560822
    CHANNELS 3 Zrotation Xrotation Yrotation
    JOINT KneeLeft
    {
      OFFSET 22.278466 -33.350806 -0.029059
      CHANNELS 3 Zrotation Xrotation Yrotation
      JOINT AnkleLeft
      {
        OFFSET -2.745839 -34.166178 -13.698904
        CHANNELS 3 Zrotation Xrotation Yrotation
        JOINT FootLeft
        {
          OFFSET -2.447269 -5.190267 -0.663036
          CHANNELS 3 Zrotation Xrotation Yrotation
          End Site
          {
            OFFSET 0 0 0
          }
        }
      }
    }
  }
  JOINT HipRight
  {
    OFFSET 1.104788 1.599741 -2.718272
    CHANNELS 3 Zrotation Xrotation Yrotation
    JOINT KneeRight
    {
      OFFSET 7.620126 -36.936096 -12.313965
      CHANNELS 3 Zrotation Xrotation Yrotation
      JOINT AnkleRight
      {
        OFFSET 9.398109 -31.166910 -2.250524
        CHANNELS 3 Zrotation Xrotation Yrotation
        JOINT FootRight
        {
          OFFSET -9.625010 -2.721810 -7.143281
          CHANNELS 3 Zrotation Xrotation Yrotation
          End Site
          {
            OFFSET 0 0 0
          }
        }
      }
    }
  }
}
MOTION
Frames: 5
Frame Time: 0.033333
91.030681 73.149420 291.862166 -0.680761 2.566243 29.622763 -0.324982 -0.225173 -29.602174 -0.776777 0.134054 -0.019679 5.463271 -2.558212 -2.606998 0.000000 0.000000 0.000000 -19.192693 48.463267 8.749872 122.642928 -65.851441 104.288262 -26.824723 13.223326 12.373617 16.774232 18.143345 -11.754343 0.000000 0.000000 0.000000 0.000000 0.000000 0.000000 -2.652633 -4.524849 1.707641 10.136985 2.942780 -4.364987 -7.609674 -3.089988 0.527479 5.568233 4.811681 0.061972 0.000000 0.000000 0.000000 0.000000 0.000000 0.000000 -3.182164 2.381204 -27.519019 16.329309 -12.780524 -4.545383 -30.355368 34.130385 0.973062 0.000000 0.000000 0.000000 -2.428819 -5.584100 -30.465865 0.074216 4.263088 0.939150 60.867903 -31.985574 24.172991 0.000000 0.000000 0.000000
91.032783 73.252323 291.821601 -0.422657 2.929134 32.287569 -0.155772 -0.259308 -32.249210 -0.820255 -0.195964 -0.016062 3.865490 -3.453009 -1.650168 0.000000 0.000000 0.000000 -18.874915 49.017159 8.573005 120.089371 -64.740086 100.345378 -34.106843 7.809754 15.974161 22.337242 17.389647 -13.805942 0.000000 0.000000 0.000000 0.000000 0.000000 0.000000 -2.897291 -4.678591 1.667265 9.997915 3.019612 -4.371041 -7.689701 -3.028343 0.498663 4.608283 5.244524 0.580308 0.000000 0.000000 0.000000 0.000000 0.000000 0.000000 -4.078211 4.300282 -29.217700 19.886922 -17.281983 -5.064353 -16.801631 34.698597 -4.315179 0.000000 0.000000 0.000000 -3.220722 -5.830546 -33.223850 0.141552 4.493756 0.977728 49.232264 -28.609473 19.046571 0.000000 0.000000 0.000000
90.947652 73.291827 292.103013 -0.183401 2.744663 33.798321 0.409345 -0.025408 -33.736927 -0.795993 -0.377437 0.007577 1.476131 -4.812754 -0.266473 0.000000 0.000000 0.000000 -18.219744 49.796167 8.198504 119.557636 -64.585086 100.158513 -36.156739 5.097638 16.836288 22.893204 16.622545 -14.623908 0.000000 0.000000 0.000000 0.000000 0.000000 0.000000 -3.375037 -4.850527 1.590124 9.863231 3.063154 -4.356608 -7.031115 -1.671105 1.170258 2.963265 2.505145 0.353774 0.000000 0.000000 0.000000 0.000000 0.000000 0.000000 -3.992411 5.904519 -29.952517 21.073773 -19.707338 -5.364792 -7.614417 34.269642 -8.330436 0.000000 0.000000 0.000000 -3.239318 -5.275623 -34.686809 -0.112981 3.437392 0.743129 21.191253 -15.007335 8.264563 0.000000 0.000000 0.000000
90.875954 73.285633 292.285193 0.099206 2.639082 34.600345 0.660098 0.092062 -34.531788 -1.032685 -0.807948 -0.015104 -0.169178 -4.789445 0.772080 0.000000 0.000000 0.000000 -16.562423 50.649024 7.701378 119.776749 -65.512225 102.227112 -36.549136 5.262735 16.713533 23.709128 15.446495 -15.008304 0.000000 0.000000 0.000000 0.000000 0.000000 0.000000 -3.395175 -4.571632 1.584978 9.701804 3.097185 -4.321740 -6.480114 -0.747111 1.680931 1.596510 1.187546 0.178595 0.000000 0.000000 0.000000 0.000000 0.000000 0.000000 -4.166162 7.644340 -29.896846 20.613771 -21.056510 -5.569183 5.501250 29.951739 -12.582107 0.000000 0.000000 0.000000 -3.272904 -4.863044 -35.464093 -0.215620 3.217588 0.735312 10.687149 -8.101022 2.739437 0.000000 0.000000 0.000000
90.744226 73.221204 292.649944 0.102512 2.038395 35.589291 0.758867 0.347220 -35.532889 -1.292452 -1.169097 -0.068525 -0.212432 -3.235950 0.952920 0.000000 0.000000 0.000000 -14.464131 51.523300 7.296402 121.349675 -67.354945 106.833079 -33.747059 8.069884 15.066174 21.738844 14.812575 -14.224746 0.000000 0.000000 0.000000 0.000000 0.000000 0.000000 -2.872081 -3.906547 1.659083 9.512930 3.144604 -4.279793 -6.007980 0.142060 2.125330 1.183048 -0.997027 -0.396243 0.000000 0.000000 0.000000 0.000000 0.000000 0.000000 -3.118794 8.477493 -30.509538 17.213380 -19.806088 -5.647349 23.038109 17.125945 -12.392164 0.000000 0.000000 0.000000 -2.508383 -4.087472 -36.390131 -0.480143 2.738157 0.731349 8.221337 -6.259128 1.647590 0.000000 0.000000 0.000000
